<?xml version="1.0" standalone="no"?>
<!DOCTYPE svg PUBLIC "-//W3C//DTD SVG 20010904//EN"
 "http://www.w3.org/TR/2001/REC-SVG-20010904/DTD/svg10.dtd">
<svg version="1.0" xmlns="http://www.w3.org/2000/svg"
 width="700.000000pt" height="700.000000pt" viewBox="0 0 700.000000 700.000000"
 preserveAspectRatio="xMidYMid meet">

<g transform="translate(0.000000,700.000000) scale(0.100000,-0.100000)"
fill="#000000" stroke="none">
<path d="M3486 5944 c-9 -24 -7 -107 3 -123 18 -27 38 -4 43 50 3 28 3 60 1
70 -6 23 -39 25 -47 3z"/>
<path d="M3043 5883 c-4 -9 2 -42 13 -72 15 -45 24 -57 43 -59 23 -4 24 -2 17
38 -14 89 -55 141 -73 93z"/>
<path d="M3910 5825 c-23 -68 -21 -85 9 -85 13 0 25 17 40 61 25 66 22 89 -8
89 -15 0 -24 -15 -41 -65z"/>
<path d="M3487 5713 c-3 -4 -7 -105 -8 -223 l-4 -215 22 -3 c32 -5 34 14 31
243 -3 177 -5 200 -20 203 -9 2 -18 -1 -21 -5z"/>
<path d="M2647 5693 c-14 -13 -6 -37 29 -84 59 -81 100 -55 43 28 -41 60 -57
72 -72 56z"/>
<path d="M4338 5677 c-28 -23 -80 -105 -74 -116 15 -23 43 -9 79 39 41 55 43
62 24 79 -10 8 -18 7 -29 -2z"/>
<path d="M3114 5656 c-5 -14 112 -405 126 -420 12 -12 40 0 40 19 0 18 -108
371 -122 398 -10 20 -36 23 -44 3z"/>
<path d="M3856 5651 c-18 -29 -137 -394 -132 -406 3 -8 14 -15 24 -15 16 0 31
34 87 200 37 110 65 207 61 215 -6 16 -32 20 -40 6z"/>
<path d="M2781 5486 c-9 -10 7 -40 75 -137 124 -177 165 -229 181 -229 27 0
26 31 -4 73 -173 245 -219 307 -229 307 -6 0 -17 -6 -23 -14z"/>
<path d="M4067 5320 c-70 -93 -127 -176 -127 -184 0 -11 20 -26 35 -26 12 0
256 345 253 358 -8 43 -38 16 -161 -148z"/>
<path d="M2317 5367 c-7 -18 0 -27 52 -65 85 -61 117 -22 34 42 -48 38 -77 45
-86 23z"/>
<path d="M4605 5324 c-50 -35 -64 -66 -33 -72 24 -5 112 61 116 86 5 33 -25
28 -83 -14z"/>
<path d="M2514 5225 c-3 -8 -3 -19 1 -25 9 -14 322 -250 343 -257 13 -5 31 12
32 29 0 11 -344 268 -359 268 -6 0 -14 -7 -17 -15z"/>
<path d="M4299 5110 c-192 -138 -190 -136 -183 -155 10 -26 32 -17 137 57 56
39 130 91 163 115 70 49 88 68 79 83 -14 23 -48 5 -196 -100z"/>
<path d="M3323 4996 c-90 -29 -146 -62 -216 -126 -57 -52 -125 -149 -147 -210
l-12 -35 -232 0 c-257 -1 -337 -12 -531 -77 -97 -32 -100 -34 -103 -64 -3 -28
-10 -35 -53 -52 l-49 -21 0 -806 c0 -710 2 -806 15 -811 8 -4 52 10 98 29 208
89 412 135 632 144 274 10 485 -38 689 -157 37 -22 75 -40 83 -40 7 0 50 21
94 46 92 53 231 105 345 129 109 23 326 30 452 16 174 -21 404 -84 544 -150
91 -44 83 -123 86 792 l2 808 -49 21 c-43 17 -50 24 -53 52 -3 30 -7 32 -98
63 -195 65 -281 78 -532 79 l-228 0 -36 73 c-44 87 -139 192 -217 239 -98 59
-184 82 -305 82 -84 -1 -123 -6 -179 -24z m295 -71 c87 -21 150 -55 221 -121
76 -70 127 -158 147 -256 30 -142 3 -259 -101 -428 -81 -131 -110 -191 -115
-240 l-5 -45 -262 -3 -263 -2 0 36 c0 40 -32 107 -129 274 -76 131 -102 209
-102 313 -1 309 302 544 609 472z m-749 -353 l54 -7 1 -109 1 -109 -115 6
c-186 10 -418 -18 -572 -69 -49 -16 -63 -39 -32 -51 9 -3 53 3 98 15 146 38
263 52 431 51 88 -1 170 -4 182 -7 15 -5 39 -42 82 -126 34 -66 59 -121 58
-123 -2 -2 -51 4 -108 13 -286 44 -825 -34 -751 -108 8 -8 42 -3 119 16 267
64 500 71 725 20 64 -15 70 -18 88 -54 31 -61 27 -104 -16 -147 l-36 -36 -99
17 c-190 31 -479 17 -681 -34 -97 -25 -121 -41 -96 -66 14 -14 22 -15 45 -5
47 19 202 49 318 62 151 16 383 3 487 -27 10 -3 20 -20 24 -41 4 -19 20 -50
35 -68 26 -29 28 -36 19 -61 -6 -16 -9 -39 -5 -51 6 -27 1 -28 -80 -8 -118 28
-303 40 -442 27 -177 -16 -363 -55 -400 -84 -17 -13 -5 -38 19 -38 11 0 55 9
99 20 311 80 682 62 921 -44 37 -17 62 -35 72 -53 21 -41 65 -79 119 -103 l47
-21 0 -94 c0 -52 -2 -95 -4 -95 -2 0 -57 27 -121 60 -196 100 -353 139 -590
147 -210 7 -357 -13 -602 -83 l-23 -6 0 690 0 691 79 25 c199 63 462 90 650
68z m1589 -3 c121 -13 212 -32 325 -66 l87 -26 0 -690 0 -689 -27 6 c-16 3
-70 17 -122 31 -382 101 -784 63 -1091 -104 -47 -25 -88 -47 -92 -49 -5 -2 -8
41 -8 96 l0 100 29 7 c44 9 105 58 124 98 14 29 29 40 93 67 257 107 588 120
921 36 74 -19 95 -21 103 -11 22 27 -2 42 -113 68 -164 40 -254 50 -422 50
-142 -1 -297 -19 -360 -43 -24 -9 -25 -8 -26 28 0 20 -4 46 -8 56 -5 14 1 28
21 50 16 17 31 48 34 68 6 35 9 38 58 47 217 44 451 36 705 -26 105 -25 131
-23 118 11 -10 25 -167 65 -347 87 -115 14 -377 6 -470 -15 l-65 -15 -37 42
c-44 48 -48 77 -16 141 21 43 24 46 87 60 222 50 482 41 749 -26 59 -14 87
-17 94 -10 32 32 -24 56 -212 94 -96 19 -147 23 -310 23 -126 0 -219 -5 -263
-14 -37 -7 -70 -12 -72 -10 -2 2 11 29 29 59 18 30 45 85 61 121 28 66 29 67
73 73 70 9 279 7 372 -4 47 -6 131 -22 188 -35 130 -31 144 -32 140 -3 -3 18
-17 25 -93 45 -177 46 -261 56 -451 56 l-181 0 0 91 c-1 50 -3 98 -5 106 -2
12 11 16 57 21 104 10 223 9 323 -2z m-2378 -852 l0 -673 49 -48 c48 -47 49
-48 77 -33 49 25 173 64 284 88 90 20 133 24 295 24 210 0 303 -14 451 -65 87
-30 225 -96 235 -111 4 -8 4 -45 0 -56 -1 -1 -34 15 -73 37 -351 189 -823 192
-1286 9 -40 -16 -75 -29 -77 -29 -3 0 -5 340 -5 755 0 708 1 755 18 764 9 6
20 11 25 11 4 0 7 -303 7 -673z m2874 667 c14 -6 16 -82 16 -766 0 -604 -3
-759 -12 -755 -181 74 -362 126 -521 148 -45 6 -147 11 -227 10 -230 0 -402
-38 -582 -129 l-98 -49 0 32 c0 30 5 34 83 72 199 98 395 138 642 130 181 -5
308 -28 466 -83 54 -19 104 -34 111 -34 7 0 29 19 50 43 l38 42 0 673 c0 401
4 672 9 672 5 0 16 -3 25 -6z m-1144 -647 c19 -9 26 -22 28 -49 6 -67 -1 -68
-338 -68 -216 1 -299 4 -311 13 -38 29 -31 89 14 107 36 14 577 12 607 -3z
m-32 -219 c19 -19 15 -66 -7 -78 -12 -6 -114 -10 -263 -10 -260 0 -290 5 -296
48 -7 51 0 52 287 52 194 0 270 -3 279 -12z m-168 -183 c0 -24 -48 -64 -85
-71 -43 -8 -73 2 -107 34 -49 46 -40 52 82 52 93 0 110 -2 110 -15z"/>
<path d="M3214 4740 c-37 -15 -103 -100 -119 -153 -57 -192 56 -325 178 -209
99 93 124 276 48 344 -32 28 -67 34 -107 18z m87 -72 c15 -28 7 -144 -14 -184
-40 -78 -106 -116 -137 -79 -39 46 -14 189 44 249 40 43 88 49 107 14z"/>
<path d="M2110 4959 c0 -23 50 -48 113 -57 36 -4 39 -3 35 18 -2 18 -15 28
-53 41 -70 24 -95 24 -95 -2z"/>
<path d="M4800 4942 c-35 -11 -56 -24 -58 -35 -5 -25 21 -31 77 -17 62 15 84
30 75 53 -8 21 -23 21 -94 -1z"/>
<path d="M2342 4879 c3 -18 34 -32 206 -92 188 -65 205 -69 220 -53 11 11 13
19 6 26 -15 15 -384 140 -412 140 -18 0 -23 -5 -20 -21z"/>
<path d="M4585 4875 c-22 -7 -87 -28 -145 -45 -194 -59 -205 -64 -208 -88 -5
-32 18 -29 202 29 88 27 176 55 194 61 26 8 32 15 30 31 -4 27 -21 30 -73 12z"/>
<path d="M2500 2396 c-131 -37 -221 -109 -277 -224 -36 -73 -38 -80 -38 -176
0 -126 26 -202 93 -277 81 -91 161 -132 288 -150 262 -36 491 120 525 357 30
211 -92 400 -300 464 -73 23 -219 26 -291 6z m243 -239 c111 -85 97 -290 -25
-353 -33 -17 -111 -20 -148 -6 -37 14 -79 57 -96 97 -16 40 -19 141 -3 182 14
37 56 82 94 99 48 23 136 13 178 -19z"/>
<path d="M3470 2391 c-196 -63 -300 -203 -301 -405 -1 -151 56 -261 176 -340
241 -159 581 -79 697 163 25 52 32 81 36 151 12 215 -109 378 -323 436 -71 20
-218 17 -285 -5z m247 -228 c57 -37 84 -94 84 -179 0 -120 -69 -194 -181 -194
-67 0 -108 23 -147 81 -24 37 -28 53 -28 113 0 91 22 138 84 177 61 39 130 40
188 2z"/>
<path d="M5240 2396 c-146 -42 -220 -128 -220 -256 0 -73 16 -114 61 -157 45
-43 102 -66 239 -98 63 -15 121 -32 128 -37 6 -6 12 -21 12 -34 0 -64 -186
-53 -353 20 -14 7 -23 -5 -52 -68 -55 -121 -55 -122 -1 -146 88 -37 168 -52
286 -53 145 -2 235 24 306 86 60 53 83 104 84 185 0 141 -63 195 -286 247 -60
14 -119 30 -131 35 -29 12 -31 55 -4 70 37 19 161 11 236 -15 38 -14 72 -21
76 -17 11 13 80 185 75 189 -2 2 -37 16 -77 30 -62 22 -95 27 -204 29 -87 2
-145 -1 -175 -10z"/>
<path d="M4853 2390 l-142 -5 -78 -85 c-43 -47 -99 -109 -125 -138 -25 -29
-49 -52 -52 -52 -3 0 -6 63 -6 140 l0 140 -135 0 -135 0 0 -405 0 -405 135 0
135 0 0 103 0 103 33 32 33 32 99 -135 100 -134 158 -1 c124 0 157 3 151 13
-5 6 -74 100 -154 207 -81 107 -153 205 -160 216 -16 25 -20 19 178 237 67 75
119 137 115 139 -5 2 -72 1 -150 -2z"/>
<path d="M1310 1985 l0 -407 298 4 c322 5 343 8 425 65 58 40 80 91 75 173 -4
77 -32 125 -97 162 l-37 21 41 42 c104 104 72 253 -67 316 -51 23 -62 24 -345
27 l-293 3 0 -406z m468 199 c22 -15 29 -48 14 -71 -13 -21 -62 -33 -138 -33
l-74 0 0 60 0 60 88 0 c63 0 94 -4 110 -16z m48 -308 c19 -27 18 -49 -5 -77
-18 -23 -26 -24 -128 -24 l-108 0 -3 63 -3 64 116 -4 c102 -3 118 -6 131 -22z"/>
<path d="M1770 1226 l0 -136 95 0 c88 0 95 1 95 20 0 18 -7 20 -70 20 l-69 0
-3 113 c-3 108 -4 112 -25 115 -23 3 -23 3 -23 -132z"/>
<path d="M2000 1226 l0 -136 25 0 26 0 -3 133 c-3 128 -4 132 -25 135 -23 3
-23 3 -23 -132z"/>
<path d="M2120 1226 l0 -136 85 0 c112 0 145 15 145 67 0 20 -7 44 -16 54 -12
13 -13 22 -5 38 6 11 11 31 11 45 0 40 -38 57 -135 64 l-85 5 0 -137z m151 84
c10 -6 19 -19 19 -30 0 -25 -29 -40 -79 -40 l-41 0 0 40 0 40 41 0 c22 0 49
-5 60 -10z m26 -127 c9 -11 9 -21 2 -34 -8 -15 -21 -19 -69 -19 l-60 0 0 39 0
40 58 -5 c34 -4 62 -12 69 -21z"/>
<path d="M2418 1354 c-5 -4 -8 -65 -8 -136 l0 -128 25 0 c23 0 25 4 25 40 0
37 2 40 28 40 33 0 42 -6 71 -47 15 -22 31 -33 47 -33 30 0 30 3 -2 45 l-26
35 26 31 c41 48 34 109 -14 134 -32 17 -161 31 -172 19z m150 -56 c7 -7 12
-24 12 -38 0 -38 -18 -50 -72 -50 l-48 0 0 50 0 50 48 0 c26 0 53 -5 60 -12z"/>
<path d="M2765 1337 c-8 -12 -28 -53 -45 -92 -52 -117 -62 -140 -67 -147 -2
-5 8 -8 22 -8 20 0 29 7 38 30 11 29 13 30 80 30 67 0 69 -1 80 -30 8 -21 18
-30 34 -30 13 0 23 4 23 8 0 12 -100 236 -111 246 -16 18 -40 14 -54 -7z m69
-124 c7 -22 4 -23 -38 -23 -25 0 -46 4 -46 9 0 5 10 30 21 57 l22 48 17 -35
c10 -19 21 -44 24 -56z"/>
<path d="M2978 1354 c-5 -4 -8 -65 -8 -136 l0 -128 24 0 c21 0 25 5 28 38 3
34 6 37 35 40 28 3 36 -2 60 -37 21 -30 35 -40 56 -41 l28 0 -25 33 c-31 41
-32 49 -7 71 41 37 35 110 -11 140 -25 16 -169 33 -180 20z m156 -60 c40 -39
4 -84 -66 -84 l-48 0 0 50 0 50 49 0 c32 0 55 -6 65 -16z"/>
<path d="M3217 1354 c-3 -3 17 -41 44 -85 41 -68 49 -88 49 -130 0 -46 2 -49
25 -49 23 0 25 4 25 44 0 36 10 61 50 127 53 88 59 105 34 95 -9 -3 -19 -6
-23 -6 -4 0 -23 -27 -42 -60 -18 -33 -36 -60 -39 -60 -3 0 -21 29 -42 63 -24
41 -43 63 -56 64 -11 1 -22 -1 -25 -3z"/>
<path d="M3653 1350 c-28 -11 -39 -53 -24 -87 10 -23 9 -29 -14 -53 -32 -34
-34 -83 -3 -104 27 -19 106 -21 143 -4 21 10 28 9 35 -2 7 -11 11 -12 24 0 15
12 15 14 1 30 -13 15 -14 22 -3 44 10 23 9 29 -3 37 -21 13 -26 11 -33 -13
l-5 -23 -27 27 -27 26 26 32 c33 39 33 45 2 75 -25 26 -54 30 -92 15z m67 -49
c0 -10 -7 -24 -16 -31 -12 -11 -18 -10 -31 3 -21 21 -9 47 22 47 18 0 25 -5
25 -19z m-10 -126 l33 -34 -29 -11 c-54 -21 -103 22 -69 60 24 26 25 26 65
-15z"/>
<path d="M4010 1347 c-38 -19 -54 -60 -38 -94 10 -22 28 -33 78 -49 56 -18 65
-24 65 -45 0 -22 -5 -24 -47 -27 -26 -2 -57 2 -69 8 -17 10 -23 9 -30 -1 -5
-8 -9 -17 -9 -20 0 -14 55 -29 106 -29 45 0 59 4 79 25 51 50 23 104 -63 125
-56 13 -76 29 -66 54 9 23 50 31 92 18 28 -9 38 -9 44 1 13 20 10 25 -23 36
-42 14 -88 14 -119 -2z"/>
<path d="M4184 1345 c-10 -25 7 -37 47 -33 l39 4 0 -113 0 -113 25 0 25 0 0
110 0 110 45 0 c41 0 45 2 45 25 l0 25 -110 0 c-88 0 -112 -3 -116 -15z"/>
<path d="M4501 1343 c-52 -27 -75 -65 -75 -120 0 -84 51 -133 139 -133 57 0
100 21 125 63 35 57 19 141 -35 180 -38 27 -113 32 -154 10z m137 -59 c34 -39
26 -108 -17 -141 -44 -34 -132 -2 -145 53 -24 95 96 160 162 88z"/>
<path d="M4768 1354 c-5 -4 -8 -65 -8 -136 l0 -128 24 0 c21 0 25 5 28 38 3
34 6 37 35 40 28 3 36 -2 60 -37 21 -30 35 -40 56 -41 l28 0 -29 43 -30 42 23
17 c46 35 37 120 -16 149 -26 13 -161 24 -171 13z m156 -60 c40 -39 4 -84 -66
-84 l-48 0 0 50 0 50 49 0 c32 0 55 -6 65 -16z"/>
<path d="M5047 1354 c-4 -4 -7 -65 -7 -136 l0 -128 100 0 c93 0 100 1 100 20
0 18 -7 20 -75 20 l-75 0 0 35 0 35 66 0 c61 0 65 1 62 22 -3 19 -10 21 -63
22 -60 1 -60 1 -63 33 l-3 32 73 3 c65 3 73 5 73 23 0 18 -8 20 -90 23 -50 1
-94 0 -98 -4z"/>
</g>
</svg>
